#N canvas 14 588 578 467 10;
#X obj 273 41 tgl 15 0 empty empty empty 17 7 0 10 -4034 -1 -1 1 1
;
#X obj 273 128 route nose leftEye rightEye leftEar rightEar;
#X obj 271 155 unpack f f;
#X obj 298 352 osc~;
#X obj 274 230 * 108;
#X obj 274 252 mtof;
#X obj 274 296 line~;
#X obj 329 256 osc~;
#X obj 329 232 line~;
#X obj 292 378 *~;
#X obj 438 224 vsl 15 128 0 0.5 0 0 empty empty vol 0 -9 0 10 -4034
-1 -1 6700 1;
#X obj 290 408 dac~;
#X msg 479 403 \; pd dsp 1;
#X obj 479 379 loadbang;
#X text 18 70 1 Create a PoseNet model in Runway;
#X text 18 110 3 Install purest_json external in Pd;
#X text 18 130 4 Add the purest_json directory to your;
#X text 38 150 Pd path;
#X text 342 154 x and y data for nose;
#X text 294 40 turn on metro to begin receiving data;
#X text 30 42 RUNWAY -> Pd PoseNet Example;
#X text 18 170 5 Change the argument in runway-posenet;
#X text 18 210 6 Toggle on the metro;
#X text 18 230 7 Turn up the volume;
#X text 18 90 2 Select HTTP output and run model;
#X obj 273 92 runway-posenet 8000;
#X msg 274 274 \$1 200;
#X msg 329 208 \$1 200;
#X obj 302 327 +~;
#X obj 330 281 *~;
#X obj 363 328 *~;
#X obj 330 179 * 100;
#X msg 427 67 info;
#X text 38 190 to point to server port;
#X text 470 66 list poses;
#X obj 273 64 metro 50;
#X connect 0 0 35 0;
#X connect 1 0 2 0;
#X connect 2 0 4 0;
#X connect 2 1 31 0;
#X connect 3 0 9 0;
#X connect 4 0 5 0;
#X connect 5 0 26 0;
#X connect 6 0 28 0;
#X connect 7 0 29 0;
#X connect 8 0 7 0;
#X connect 9 0 11 0;
#X connect 9 0 11 1;
#X connect 10 0 9 1;
#X connect 13 0 12 0;
#X connect 25 0 1 0;
#X connect 26 0 6 0;
#X connect 27 0 8 0;
#X connect 28 0 3 0;
#X connect 29 0 30 0;
#X connect 30 0 28 1;
#X connect 31 0 27 0;
#X connect 31 0 30 1;
#X connect 32 0 25 0;
#X connect 35 0 25 0;
