#N canvas 1025 224 893 854 10;
#X obj 228 158 json-decode;
#X obj 218 132 rest;
#X obj 218 14 inlet;
#X text 187 -6 bang to read;
#X text 19 53 by Joel Matthys;
#X text 19 75 requires purest_json lib;
#X text 19 31 runway-posenet;
#X obj 259 184 list trim;
#X obj 259 210 route poses scores;
#X obj 259 264 json-decode;
#X obj 205 510 list store;
#X msg 210 454 append \$1;
#X obj 433 124 rest;
#X obj 444 153 json-decode;
#X obj 483 196 list trim;
#X obj 461 250 route outputs;
#X obj 451 324 json-decode;
#X obj 490 367 list trim;
#X obj 468 421 route itemType;
#X obj 507 484 json-decode;
#X obj 546 527 list trim;
#X obj 541 595 route labels;
#X msg 436 84 GET http://localhost:\$1/info;
#X obj 435 58 f \$1;
#X obj 434 8 loadbang;
#X msg 218 61 bang;
#X obj 218 83 f \$1;
#X msg 218 106 GET http://localhost:\$1/data;
#X obj 516 747 int;
#X obj 544 748 + 1;
#X msg 586 690 0;
#X obj 544 554 t a b;
#X obj 217 37 route info;
#X obj 479 648 json-decode;
#X obj 518 691 list trim;
#X obj 516 718 t b a;
#X obj 589 759 symbol;
#X obj 514 787 pack 0 symbol;
#X obj 513 811 print INFO;
#X obj 409 715 list store;
#X msg 426 689 append \$1;
#X obj 434 33 t b b b;
#X obj 315 357 int;
#X obj 341 358 + 1;
#X obj 342 435 == 0;
#X obj 342 408 % 2;
#X obj 315 381 t f f;
#X msg 314 486 get \$1 1;
#X obj 259 236 t a b b b;
#X msg 333 333 0;
#X obj 313 459 spigot;
#X msg 409 741 append \$1;
#X obj 314 421 / 2;
#X obj 182 416 f;
#X obj 289 303 t b f b;
#X obj 146 449 sel 1;
#X obj 225 478 t b b;
#X obj 202 587 outlet;
#X obj 202 553 list trim;
#X connect 0 1 7 0;
#X connect 1 1 0 0;
#X connect 2 0 32 0;
#X connect 7 0 8 0;
#X connect 8 0 48 0;
#X connect 9 1 54 0;
#X connect 10 0 58 0;
#X connect 11 0 10 0;
#X connect 12 1 13 0;
#X connect 13 1 14 0;
#X connect 14 0 15 0;
#X connect 15 0 16 0;
#X connect 16 1 17 0;
#X connect 17 0 18 0;
#X connect 18 0 19 0;
#X connect 19 1 20 0;
#X connect 20 0 31 0;
#X connect 21 0 33 0;
#X connect 22 0 12 0;
#X connect 23 0 22 0;
#X connect 24 0 41 0;
#X connect 25 0 26 0;
#X connect 26 0 27 0;
#X connect 27 0 1 0;
#X connect 28 0 29 0;
#X connect 28 0 37 0;
#X connect 29 0 28 1;
#X connect 30 0 28 1;
#X connect 31 0 21 0;
#X connect 32 0 41 0;
#X connect 32 1 25 0;
#X connect 33 1 34 0;
#X connect 33 1 40 0;
#X connect 34 0 35 0;
#X connect 35 0 28 0;
#X connect 35 1 36 0;
#X connect 36 0 37 1;
#X connect 37 0 38 0;
#X connect 39 0 51 0;
#X connect 40 0 39 0;
#X connect 41 0 23 0;
#X connect 41 1 30 0;
#X connect 41 2 39 1;
#X connect 42 0 43 0;
#X connect 42 0 46 0;
#X connect 43 0 42 1;
#X connect 44 0 50 1;
#X connect 45 0 44 0;
#X connect 45 0 53 1;
#X connect 46 0 52 0;
#X connect 46 1 45 0;
#X connect 47 0 39 0;
#X connect 48 0 9 0;
#X connect 48 2 10 0;
#X connect 48 3 49 0;
#X connect 49 0 42 1;
#X connect 50 0 47 0;
#X connect 51 0 10 0;
#X connect 52 0 50 0;
#X connect 53 0 55 0;
#X connect 54 0 53 0;
#X connect 54 1 11 0;
#X connect 54 2 42 0;
#X connect 55 0 56 0;
#X connect 56 0 10 1;
#X connect 56 1 10 0;
#X connect 58 0 57 0;
